<svg version="1.1" id="Layer_1" xmlns="http://www.w3.org/2000/svg" xmlns:xlink="http://www.w3.org/1999/xlink" x="0px" y="0px"
	 width="100%" viewBox="125 385 785 185" xml:space="preserve">
<path fill="#B5E43C" opacity="1.000000" stroke="none" 
	d="
M149.235855,512.619080 
	C144.832199,502.061798 141.826981,491.588654 141.703690,480.393127 
	C141.660934,476.510468 143.106918,475.020691 146.951584,475.048340 
	C158.940720,475.134552 170.932999,474.902435 182.920212,475.069641 
	C187.054977,475.127289 188.703705,474.033447 188.909134,469.521149 
	C190.592316,432.547791 216.539490,404.175598 253.117065,398.958038 
	C278.317719,395.363281 306.171967,409.970581 319.513794,433.853333 
	C326.056305,445.564880 329.216248,458.154297 329.392761,471.587799 
	C329.447662,475.763977 327.933350,477.184235 323.893921,477.135254 
	C312.405212,476.995972 300.911957,477.207123 289.424133,477.036926 
	C285.588196,476.980103 284.229218,478.262573 284.081055,482.178101 
	C283.364990,501.105835 277.309875,518.073364 264.333832,532.140442 
	C234.365524,564.628418 181.626984,560.491028 155.709824,523.711914 
	C153.309235,520.305298 151.063889,516.803772 149.235855,512.619080 
M197.707001,477.124542 
	C194.130371,477.045868 190.476669,476.641052 190.599335,482.092865 
	C190.877167,494.439941 201.686172,505.590027 213.457260,505.494110 
	C225.650360,505.394745 235.683472,495.079468 236.022415,482.623383 
	C236.133759,478.531738 234.737076,477.004486 230.594849,477.078094 
	C219.952118,477.267212 209.303619,477.131836 197.707001,477.124542 
M241.888977,474.982452 
	C253.548920,474.993469 265.208862,475.018005 276.868805,475.004944 
	C279.444061,475.002045 282.155457,475.016083 281.853485,471.207153 
	C281.281738,463.995941 279.034119,457.434967 273.427856,452.604401 
	C266.225555,446.398682 258.466217,445.680603 250.245483,450.021851 
	C242.798279,453.954559 237.450089,463.521271 238.092499,471.539642 
	C238.249985,473.505554 238.982300,474.678284 241.888977,474.982452 
z"/>
<path fill="#FFFFFF" opacity="1.000000" stroke="none" 
	d="
M530.750610,462.468994 
	C537.329834,477.279266 538.830017,492.053131 532.331116,506.809265 
	C524.888855,523.707397 507.544739,529.975769 490.704865,522.360901 
	C489.826263,521.963623 488.935547,521.593079 487.382538,520.921021 
	C487.382538,528.493408 487.234467,535.560059 487.455566,542.615173 
	C487.543762,545.428833 489.810059,546.930969 492.386719,547.595825 
	C494.560699,548.156799 495.483734,549.429565 495.162720,551.579956 
	C494.821716,553.864563 492.918732,553.810791 491.303680,553.817444 
	C481.645569,553.857300 471.986389,553.870544 462.329468,553.744507 
	C460.654999,553.722778 458.435303,553.994568 457.897278,551.497009 
	C457.419189,549.277466 459.221344,548.721313 460.657410,547.939880 
	C463.596649,546.340454 464.868744,543.771912 464.868134,540.533875 
	C464.863678,516.720215 464.842590,492.906586 464.815216,469.092926 
	C464.811188,465.571869 462.983124,463.260803 460.033051,461.474152 
	C456.789642,459.509888 457.363098,457.227448 460.579498,456.182648 
	C468.008392,453.769348 475.569397,451.761597 483.083099,449.611176 
	C485.874847,448.812195 487.189362,449.928101 487.151550,452.811035 
	C487.136444,453.960480 487.283691,455.112091 487.411865,457.121918 
	C496.212463,449.758850 505.671387,447.035583 516.341492,450.274139 
	C522.741028,452.216461 527.243347,456.482178 530.750610,462.468994 
M495.926422,463.137939 
	C488.884125,464.938660 487.190247,467.067169 487.184509,474.177094 
	C487.176514,484.149384 487.405060,494.128754 487.090393,504.091125 
	C486.924225,509.352356 489.388184,512.080139 493.884705,513.768860 
	C501.063110,516.464905 508.016815,512.931335 510.545929,504.810883 
	C513.899597,494.042938 513.699463,483.160187 510.205139,472.458252 
	C507.961273,465.585999 504.213898,463.187775 495.926422,463.137939 
z"/>
<path fill="#FFFFFF" opacity="1.000000" stroke="none" 
	d="
M446.501587,474.593079 
	C460.836548,495.362732 449.975769,520.526978 425.030731,525.111389 
	C411.692230,527.562744 398.901459,525.441406 386.412781,520.526367 
	C382.364380,518.933105 380.357788,516.525574 380.657227,511.889069 
	C381.032166,506.083740 380.732483,500.235870 380.761719,494.406586 
	C380.771820,492.393890 380.675476,490.251068 383.456512,489.846283 
	C386.041931,489.469910 387.467010,490.645111 388.243042,493.092926 
	C389.913391,498.361877 392.209991,503.346130 395.706787,507.685242 
	C400.887360,514.113770 407.698883,517.047607 415.874542,516.632874 
	C423.090118,516.266785 428.957397,511.739716 430.453644,505.705200 
	C432.280731,498.336426 429.595093,491.788208 422.610382,488.023773 
	C417.791229,485.426453 412.641510,483.435272 407.609436,481.242310 
	C402.559937,479.041779 397.633270,476.638794 393.192871,473.331604 
	C384.020813,466.500336 379.573883,457.273010 380.905304,446.008057 
	C382.249146,434.638092 388.341431,426.200684 399.238678,421.768005 
	C414.646118,415.500793 429.579285,418.228333 444.318634,424.269714 
	C446.522369,425.172943 447.113861,426.981018 447.048279,429.120880 
	C446.849365,435.609161 446.606262,442.096039 446.401367,448.584137 
	C446.336884,450.627136 445.821045,452.141418 443.338867,452.237762 
	C441.053955,452.326447 439.483551,451.626099 438.797028,449.295380 
	C437.619110,445.296295 436.245453,441.360596 434.119598,437.750610 
	C429.394440,429.726624 419.891998,425.747223 411.989838,428.255920 
	C406.684540,429.940186 403.548462,433.400421 402.653259,438.849884 
	C401.773376,444.205750 403.407166,448.714966 407.563110,452.227631 
	C411.843506,455.845490 417.087036,457.617706 422.159058,459.720886 
	C430.934204,463.359741 439.818237,466.833588 446.501587,474.593079 
z"/>
<path fill="#FFFFFF" opacity="1.000000" stroke="none" 
	d="
M653.130615,480.065247 
	C653.141907,489.881012 653.177673,499.207397 653.152222,508.533661 
	C653.140686,512.739197 653.665222,516.567505 658.318909,518.314880 
	C659.986633,518.941101 660.383179,520.350403 660.069336,522.003906 
	C659.752014,523.675598 658.432129,524.052002 657.069702,524.058899 
	C647.078552,524.109619 637.086914,524.116577 627.095642,524.090210 
	C625.540039,524.086060 624.056030,523.722107 623.771667,521.788208 
	C623.531860,520.156982 623.905945,518.751648 625.576477,518.098267 
	C630.166260,516.303101 630.713745,512.497803 630.695740,508.274506 
	C630.644592,496.283630 630.625427,484.292053 630.700134,472.301422 
	C630.728638,467.722321 629.985168,463.762634 625.424072,461.335754 
	C623.090515,460.094177 622.942688,457.759186 625.457581,456.805908 
	C633.964417,453.581482 642.705688,451.086853 652.056519,449.343445 
	C652.362671,452.850830 652.617859,455.774261 652.954468,459.629974 
	C658.080872,454.935425 663.204041,451.372314 669.393066,449.840393 
	C684.258423,446.161011 695.138611,454.245941 696.393616,469.486877 
	C697.434937,482.132629 696.840271,494.782593 697.056030,507.428894 
	C697.134827,512.046387 697.071472,516.559204 702.710266,518.335632 
	C704.451538,518.884216 704.440002,520.621094 704.119263,522.165955 
	C703.776550,523.816895 702.414734,524.112366 701.047363,524.115723 
	C691.388916,524.139160 681.730164,524.135803 672.071838,524.088196 
	C670.737732,524.081665 669.323364,523.854187 668.921326,522.217590 
	C668.529846,520.623657 668.851990,519.246521 670.414429,518.370544 
	C674.110535,516.298401 674.882568,512.865967 674.864380,508.996033 
	C674.808838,497.172028 674.919250,485.346100 674.741699,473.524261 
	C674.633972,466.352020 671.001404,462.338654 665.248169,462.413239 
	C659.168152,462.492096 653.418030,468.028687 653.175537,474.080200 
	C653.102234,475.909760 653.142090,477.743805 653.130615,480.065247 
z"/>
<path fill="#FFFFFF" opacity="1.000000" stroke="none" 
	d="
M838.225586,450.912811 
	C845.941833,448.638550 853.326233,448.338531 860.791870,450.041473 
	C876.231079,453.563141 886.322754,464.774078 888.263611,480.541901 
	C888.999817,486.522461 889.059692,492.494537 887.752258,498.384308 
	C883.873291,515.858826 869.847595,526.539246 850.746704,526.108765 
	C835.348267,525.761780 822.659607,520.172424 816.364868,505.032104 
	C809.808167,489.261444 812.050110,474.369476 822.511780,460.910583 
	C826.383545,455.929474 831.873535,453.002930 838.225586,450.912811 
M841.621094,511.768341 
	C848.712830,520.328064 857.248291,519.108337 861.603821,508.901520 
	C861.994812,507.985413 862.307739,507.030945 862.591370,506.074860 
	C865.144714,497.467499 865.323547,488.641388 864.445251,479.834473 
	C863.886169,474.228943 862.858704,468.599792 859.641174,463.706360 
	C854.733154,456.241821 845.953979,456.399689 841.449890,464.064575 
	C839.831787,466.818268 838.955444,469.857330 838.264587,472.957397 
	C836.540039,480.696045 837.182434,488.533844 837.305298,496.343781 
	C837.387756,501.579285 838.623535,506.552612 841.621094,511.768341 
z"/>
<path fill="#FFFFFF" opacity="1.000000" stroke="none" 
	d="
M573.942139,525.374390 
	C554.718628,522.007202 542.609863,507.261963 542.815308,487.960907 
	C543.032532,467.546143 555.307617,452.667969 574.453064,449.613770 
	C591.670837,446.867065 607.700012,454.410278 614.386292,468.406158 
	C622.395813,485.171783 619.408813,505.846710 606.997803,516.777344 
	C597.666138,524.995972 586.514893,527.311523 573.942139,525.374390 
M566.422607,486.704681 
	C566.693848,494.677734 567.001953,502.661652 570.637451,510.005310 
	C572.744263,514.261047 575.964294,517.470093 580.963196,517.507629 
	C586.055969,517.545837 589.308105,514.270447 590.990784,509.814087 
	C596.555847,495.075775 596.105957,480.246918 590.673645,465.601013 
	C589.020569,461.144196 585.623535,458.236938 580.436401,458.234650 
	C575.123657,458.232330 572.538452,461.686371 570.423157,465.907501 
	C567.273132,472.193695 567.408386,479.099152 566.422607,486.704681 
z"/>
<path fill="#FFFFFF" opacity="1.000000" stroke="none" 
	d="
M755.883667,451.915161 
	C761.014099,452.940430 762.947449,455.685089 762.304749,460.550995 
	C761.936523,463.338959 762.240967,466.209991 762.122681,469.038635 
	C762.035583,471.119843 762.510864,473.602386 759.423035,474.125763 
	C756.598145,474.604523 755.664490,472.687653 754.840820,470.552551 
	C752.277527,463.908173 747.908569,459.302551 740.647705,457.843140 
	C735.370178,456.782410 730.696167,458.883270 729.103149,463.222656 
	C727.764160,466.870148 729.587952,470.523590 734.623840,473.069214 
	C739.819214,475.695435 745.267578,477.815674 750.538879,480.298187 
	C765.240540,487.222076 770.712769,501.590118 763.282959,513.919678 
	C757.747192,523.106018 748.569336,525.470764 738.822876,525.966858 
	C730.118347,526.409851 721.584351,524.896118 713.350586,521.876282 
	C711.051025,521.032837 709.760864,519.702026 709.794922,517.122437 
	C709.860901,512.125244 709.821960,507.126282 709.784729,502.128326 
	C709.769226,500.047974 710.407104,498.510162 712.705383,498.228760 
	C714.847839,497.966461 716.628906,498.286621 717.471802,500.733276 
	C718.667542,504.204681 720.180542,507.541382 722.483643,510.461426 
	C727.299683,516.567566 735.272217,519.098450 741.592590,516.487610 
	C744.545898,515.267639 746.694763,513.401367 746.914978,509.920227 
	C747.129761,506.523712 746.356018,503.466492 743.250427,501.741211 
	C739.769287,499.807312 736.122437,498.143616 732.454041,496.582367 
	C728.471313,494.887268 724.382141,493.443634 720.669922,491.164246 
	C712.889221,486.386627 708.679810,479.611633 709.774231,470.330536 
	C710.834534,461.339569 715.604126,454.952911 724.200867,451.588257 
	C734.675476,447.488678 745.085754,448.437408 755.883667,451.915161 
z"/>
<path fill="#FFFFFF" opacity="1.000000" stroke="none" 
	d="
M807.129883,523.857056 
	C796.235107,524.053711 785.742554,524.133667 775.249817,524.167236 
	C773.412354,524.173096 771.388794,524.202698 771.008728,521.715759 
	C770.682312,519.580078 772.250366,518.884155 773.873535,518.241943 
	C777.442566,516.830017 778.787537,514.039795 778.784119,510.348145 
	C778.771423,496.686676 778.794800,483.025177 778.821716,469.363708 
	C778.828613,465.843140 777.522278,463.227722 774.012329,462.028473 
	C772.372131,461.468018 771.643066,460.326263 771.804749,458.583466 
	C771.954834,456.965088 773.117798,456.273163 774.419800,455.927948 
	C782.139160,453.881378 789.850525,451.791565 797.621521,449.957886 
	C801.643372,449.008820 801.315002,452.130188 801.318054,454.620941 
	C801.338440,471.281677 801.331970,487.942444 801.332397,504.603180 
	C801.332520,510.476746 800.962036,516.399902 807.632202,519.612427 
	C809.471802,520.498413 809.135681,522.377625 807.129883,523.857056 
z"/>
<path fill="#FFFFFF" opacity="1.000000" stroke="none" 
	d="
M800.467834,436.241455 
	C795.026917,442.044678 790.318359,443.359802 784.765320,440.879974 
	C779.728088,438.630432 777.167969,433.746765 777.657593,427.321350 
	C778.181824,420.441742 784.746887,415.044708 791.452209,415.981110 
	C799.219788,417.065887 804.354248,424.124146 802.522278,431.335938 
	C802.119934,432.919830 801.309021,434.399933 800.467834,436.241455 
z"/>
</svg>