<svg width="1231" height="392" xmlns="http://www.w3.org/2000/svg" xmlns:xlink="http://www.w3.org/1999/xlink" xml:space="preserve" overflow="hidden"><g transform="translate(-65 -224)"><g><g><g><g><path d="M240.286 298.542C240.286 296.191 242.191 294.286 244.542 294.286L659.601 294.286C661.951 294.286 663.857 296.191 663.857 298.542L663.857 430.744C663.857 433.094 661.951 435 659.601 435L244.542 435C242.191 435 240.286 433.094 240.286 430.744Z" fill="#D9D9D9" fill-rule="evenodd" fill-opacity="0.298039"/><path d="M75.6429 342.154C75.6429 339.189 78.0457 336.786 81.0107 336.786L207.418 336.786C210.383 336.786 212.786 339.189 212.786 342.154L212.786 408.561C212.786 411.526 210.383 413.929 207.418 413.929L81.0107 413.929C78.0457 413.929 75.6429 411.526 75.6429 408.561Z" stroke="#000000" stroke-width="2.14286" stroke-linecap="butt" stroke-linejoin="miter" stroke-miterlimit="8" stroke-opacity="1" fill="#000000" fill-rule="evenodd" fill-opacity="1"/><text fill="#FFFFFF" fill-opacity="1" font-family="Aptos,Aptos_MSFontService,sans-serif" font-style="normal" font-variant="normal" font-weight="400" font-stretch="normal" font-size="24" text-anchor="start" direction="ltr" writing-mode="lr-tb" unicode-bidi="normal" text-decoration="none" transform="matrix(0.714286 0 0 0.714286 109.061 381)">AI</text><text fill="#FFFFFF" fill-opacity="1" font-family="Aptos,Aptos_MSFontService,sans-serif" font-style="normal" font-variant="normal" font-weight="400" font-stretch="normal" font-size="24" text-anchor="start" direction="ltr" writing-mode="lr-tb" unicode-bidi="normal" text-decoration="none" transform="matrix(0.714286 0 0 0.714286 127.275 381)">Agents</text><path d="M1074.21 358.091C1074.21 356.581 1075.44 355.357 1076.95 355.357L1208.62 355.357C1210.14 355.357 1211.36 356.581 1211.36 358.091L1211.36 391.909C1211.36 393.419 1210.14 394.643 1208.62 394.643L1076.95 394.643C1075.44 394.643 1074.21 393.419 1074.21 391.909Z" stroke="#000000" stroke-width="2.14286" stroke-linecap="butt" stroke-linejoin="miter" stroke-miterlimit="8" stroke-opacity="1" fill="#000000" fill-rule="evenodd" fill-opacity="1"/><text fill="#FFFFFF" fill-opacity="1" font-family="Aptos,Aptos_MSFontService,sans-serif" font-style="normal" font-variant="normal" font-weight="400" font-stretch="normal" font-size="22" text-anchor="start" direction="ltr" writing-mode="lr-tb" unicode-bidi="normal" text-decoration="none" transform="matrix(0.714286 0 0 0.714286 1093.24 379)">Function Calls</text><path d="M261.357 342.868C261.357 339.903 263.76 337.5 266.725 337.5L390.989 337.5C393.954 337.5 396.357 339.903 396.357 342.868L396.357 409.275C396.357 412.24 393.954 414.643 390.989 414.643L266.725 414.643C263.76 414.643 261.357 412.24 261.357 409.275Z" stroke="#0E2841" stroke-width="2.14286" stroke-linecap="butt" stroke-linejoin="miter" stroke-miterlimit="8" stroke-opacity="1" fill="#FFFFFF" fill-rule="evenodd" fill-opacity="1"/><text fill="#0E2841" fill-opacity="1" font-family="Aptos,Aptos_MSFontService,sans-serif" font-style="normal" font-variant="normal" font-weight="400" font-stretch="normal" font-size="24" text-anchor="start" direction="ltr" writing-mode="lr-tb" unicode-bidi="normal" text-decoration="none" transform="matrix(0.714286 0 0 0.714286 283.501 381)">Assumption</text><path d="M492.786 342.868C492.786 339.903 495.189 337.5 498.154 337.5L636.704 337.5C639.669 337.5 642.071 339.903 642.071 342.868L642.071 409.275C642.071 412.24 639.669 414.643 636.704 414.643L498.154 414.643C495.189 414.643 492.786 412.24 492.786 409.275Z" stroke="#0E2841" stroke-width="2.14286" stroke-linecap="butt" stroke-linejoin="miter" stroke-miterlimit="8" stroke-opacity="1" fill="#FFFFFF" fill-rule="evenodd" fill-opacity="1"/><text fill="#0E2841" fill-opacity="1" font-family="Aptos,Aptos_MSFontService,sans-serif" font-style="normal" font-variant="normal" font-weight="400" font-stretch="normal" font-size="24" text-anchor="start" direction="ltr" writing-mode="lr-tb" unicode-bidi="normal" text-decoration="none" transform="matrix(0.714286 0 0 0.714286 519.226 381)">Enforcement</text><path d="M757.071 323.706C757.071 319.095 760.807 315.357 765.421 315.357L886.579 315.357C891.193 315.357 894.929 319.095 894.929 323.706L894.929 427.008C894.929 431.619 891.193 435.357 886.579 435.357L765.421 435.357C760.807 435.357 757.071 431.619 757.071 427.008Z" stroke="#0E2841" stroke-width="2.14286" stroke-linecap="butt" stroke-linejoin="miter" stroke-miterlimit="8" stroke-opacity="1" fill="none" fill-rule="evenodd"/><text fill="#7F7F7F" fill-opacity="1" font-family="Aptos,Aptos_MSFontService,sans-serif" font-style="italic" font-variant="normal" font-weight="400" font-stretch="normal" font-size="22" text-anchor="start" direction="ltr" writing-mode="lr-tb" unicode-bidi="normal" text-decoration="none" transform="matrix(0.714286 0 0 0.714286 782.979 380)">deterministic</text><text fill="#7F7F7F" fill-opacity="1" font-family="Aptos,Aptos_MSFontService,sans-serif" font-style="italic" font-variant="normal" font-weight="400" font-stretch="normal" font-size="22" text-anchor="start" direction="ltr" writing-mode="lr-tb" unicode-bidi="normal" text-decoration="none" transform="matrix(0.714286 0 0 0.714286 821.643 399)">+</text><text fill="#7F7F7F" fill-opacity="1" font-family="Aptos,Aptos_MSFontService,sans-serif" font-style="italic" font-variant="normal" font-weight="400" font-stretch="normal" font-size="22" text-anchor="start" direction="ltr" writing-mode="lr-tb" unicode-bidi="normal" text-decoration="none" transform="matrix(0.714286 0 0 0.714286 791.729 416)">stochastic</text><path d="M212.451 372.857 249.924 373.256 249.878 377.542 212.406 377.143ZM247.826 368.949 260.614 375.514 247.689 381.805Z" fill="#0E2841" fill-rule="nonzero" fill-opacity="1"/><text fill="#D64545" fill-opacity="1" font-family="Aptos,Aptos_MSFontService,sans-serif" font-style="normal" font-variant="normal" font-weight="400" font-stretch="normal" font-size="24" text-anchor="start" direction="ltr" writing-mode="lr-tb" unicode-bidi="normal" text-decoration="none" transform="matrix(0.714286 0 0 0.714286 1082.79 341)">Block / Warn / Escalate</text><text fill="#00B050" fill-opacity="1" font-family="Aptos,Aptos_MSFontService,sans-serif" font-style="normal" font-variant="normal" font-weight="400" font-stretch="normal" font-size="24" text-anchor="start" direction="ltr" writing-mode="lr-tb" unicode-bidi="normal" text-decoration="none" transform="matrix(0.714286 0 0 0.714286 1004.62 369)">Pass</text><text fill="#0E2841" fill-opacity="1" font-family="Aptos,Aptos_MSFontService,sans-serif" font-style="normal" font-variant="normal" font-weight="400" font-stretch="normal" font-size="24" text-anchor="start" direction="ltr" writing-mode="lr-tb" unicode-bidi="normal" text-decoration="none" transform="matrix(0.714286 0 0 0.714286 415.38 316)">Contracts</text><path d="M75.2857 510.301C75.2857 509.74 75.74 509.286 76.3007 509.286L1294.27 509.286C1294.83 509.286 1295.29 509.74 1295.29 510.301L1295.29 541.842C1295.29 542.403 1294.83 542.857 1294.27 542.857L76.3007 542.857C75.74 542.857 75.2857 542.403 75.2857 541.842Z" fill="#F2F2F2" fill-rule="evenodd" fill-opacity="1"/><text fill="#0E2841" fill-opacity="1" font-family="Aptos,Aptos_MSFontService,sans-serif" font-style="normal" font-variant="normal" font-weight="400" font-stretch="normal" font-size="24" text-anchor="start" direction="ltr" writing-mode="lr-tb" unicode-bidi="normal" text-decoration="none" transform="matrix(0.714286 0 0 0.714286 629.483 531)">Audit Trail Logs</text><text fill="#0E2841" fill-opacity="1" font-family="Aptos,Aptos_MSFontService,sans-serif" font-style="normal" font-variant="normal" font-weight="400" font-stretch="normal" font-size="24" text-anchor="start" direction="ltr" writing-mode="lr-tb" unicode-bidi="normal" text-decoration="none" transform="matrix(0.714286 0 0 0.714286 388.819 246)">Agent Flow + (Nature</text><text fill="#0E2841" fill-opacity="1" font-family="Aptos,Aptos_MSFontService,sans-serif" font-style="normal" font-variant="normal" font-weight="400" font-stretch="normal" font-size="24" text-anchor="start" direction="ltr" writing-mode="lr-tb" unicode-bidi="normal" text-decoration="none" transform="matrix(0.714286 0 0 0.714286 545.969 246)">Language +</text><text fill="#0E2841" fill-opacity="1" font-family="Aptos,Aptos_MSFontService,sans-serif" font-style="normal" font-variant="normal" font-weight="400" font-stretch="normal" font-size="24" text-anchor="start" direction="ltr" writing-mode="lr-tb" unicode-bidi="normal" text-decoration="none" transform="matrix(0.714286 0 0 0.714286 634.084 246)">Pattern Library)</text><text fill="#0E2841" fill-opacity="1" font-family="Aptos,Aptos_MSFontService,sans-serif" font-style="normal" font-variant="normal" font-weight="400" font-stretch="normal" font-size="24" text-anchor="start" direction="ltr" writing-mode="lr-tb" unicode-bidi="normal" text-decoration="none" transform="matrix(0.714286 0 0 0.714286 411.24 370)">Activate</text><text fill="#0E2841" fill-opacity="1" font-family="Aptos,Aptos_MSFontService,sans-serif" font-style="normal" font-variant="normal" font-weight="400" font-stretch="normal" font-size="24" text-anchor="start" direction="ltr" writing-mode="lr-tb" unicode-bidi="normal" text-decoration="none" transform="matrix(0.714286 0 0 0.714286 674.774 370)">Obligate</text><path d="M396.357 374.464 484.909 374.464 484.909 377.679 396.357 377.679ZM483.302 371.25 492.945 376.071 483.302 380.893Z" fill="#0E2841" fill-rule="nonzero" fill-opacity="1"/><path d="M1.56571e-06-1.60714 107.427-1.60704 107.427 1.60725-1.56571e-06 1.60714ZM105.82-4.82133 115.463 0.000112486 105.82 4.82153Z" fill="#0E2841" fill-rule="nonzero" fill-opacity="1" transform="matrix(1 0 0 -1 642.071 376.071)"/><text fill="#0E2841" fill-opacity="1" font-family="Aptos,Aptos_MSFontService,sans-serif" font-style="normal" font-variant="normal" font-weight="400" font-stretch="normal" font-size="24" text-anchor="start" direction="ltr" writing-mode="lr-tb" unicode-bidi="normal" text-decoration="none" transform="matrix(0.714286 0 0 0.714286 910.129 369)">Decide</text><path d="M1074.21 408.091C1074.21 406.581 1075.44 405.357 1076.95 405.357L1275.76 405.357C1277.28 405.357 1278.5 406.581 1278.5 408.091L1278.5 441.909C1278.5 443.419 1277.28 444.643 1275.76 444.643L1076.95 444.643C1075.44 444.643 1074.21 443.419 1074.21 441.909Z" stroke="#000000" stroke-width="2.14286" stroke-linecap="butt" stroke-linejoin="miter" stroke-miterlimit="8" stroke-opacity="1" fill="#000000" fill-rule="evenodd" fill-opacity="1"/><text fill="#FFFFFF" fill-opacity="1" font-family="Aptos,Aptos_MSFontService,sans-serif" font-style="normal" font-variant="normal" font-weight="400" font-stretch="normal" font-size="22" text-anchor="start" direction="ltr" writing-mode="lr-tb" unicode-bidi="normal" text-decoration="none" transform="matrix(0.714286 0 0 0.714286 1089.21 429)">Compliant Function Calls</text><path d="M0-1.60714 90.6671-1.60714 90.6671 39.4587 89.06 37.8516 170.085 37.8516 170.085 41.0659 87.4529 41.0659 87.4529 0 89.06 1.60714 0 1.60714ZM168.478 34.6373 178.121 39.4587 168.478 44.2801Z" fill="#D64545" fill-rule="nonzero" fill-opacity="1" transform="matrix(1 0 0 -1 894.929 375.53)"/><path d="M895.643 373.75 986.379 373.75 986.379 424.924 984.771 423.316 1065.86 423.316 1065.86 426.531 983.164 426.531 983.164 375.357 984.771 376.964 895.643 376.964ZM1064.26 420.102 1073.9 424.924 1064.26 429.745Z" fill="#0E2841" fill-rule="nonzero" fill-opacity="1"/><path d="M0.007733-1.60712 170.226-0.788086 170.211 2.42616-0.007733 1.60712ZM168.634-4.01006 178.254 0.857707 168.588 5.63268Z" fill="#00B050" fill-rule="nonzero" fill-opacity="1" transform="matrix(1 0 0 -1 895.643 375.501)"/><text fill="#0E2841" fill-opacity="1" font-family="Aptos,Aptos_MSFontService,sans-serif" font-style="normal" font-variant="normal" font-weight="400" font-stretch="normal" font-size="24" text-anchor="start" direction="ltr" writing-mode="lr-tb" unicode-bidi="normal" text-decoration="none" transform="matrix(0.714286 0 0 0.714286 998.1 419)">Redirect</text><text fill="#0E2841" fill-opacity="1" font-family="Aptos,Aptos_MSFontService,sans-serif" font-style="normal" font-variant="normal" font-weight="400" font-stretch="normal" font-size="22" text-anchor="start" direction="ltr" writing-mode="lr-tb" unicode-bidi="normal" text-decoration="none" transform="matrix(0.714286 0 0 0.714286 789.829 341)">*Fuzzy</text><text fill="#0E2841" fill-opacity="1" font-family="Aptos,Aptos_MSFontService,sans-serif" font-style="normal" font-variant="normal" font-weight="400" font-stretch="normal" font-size="22" text-anchor="start" direction="ltr" writing-mode="lr-tb" unicode-bidi="normal" text-decoration="none" transform="matrix(0.714286 0 0 0.714286 838.221 341)">LTL</text><text fill="#0E2841" fill-opacity="1" font-family="Aptos,Aptos_MSFontService,sans-serif" font-style="normal" font-variant="normal" font-weight="400" font-stretch="normal" font-size="22" text-anchor="start" direction="ltr" writing-mode="lr-tb" unicode-bidi="normal" text-decoration="none" transform="matrix(0.714286 0 0 0.714286 799.293 359)">Monitor</text><path d="M0 1.60714-76.9743 1.60714-75.3671 0-75.3671 92.7514-76.9743 91.1443 758.521 91.1443 756.914 92.7514 756.914 46.185 760.129 46.185 760.129 94.3586-78.5814 94.3586-78.5814-1.60714 0-1.60714ZM753.7 47.7921 758.521 38.1493 763.343 47.7921Z" fill="#0E2841" fill-rule="nonzero" fill-opacity="1" transform="matrix(-1 1.22465e-16 1.22465e-16 1 902.736 376.071)"/><text fill="#0E2841" fill-opacity="1" font-family="Aptos,Aptos_MSFontService,sans-serif" font-style="normal" font-variant="normal" font-weight="400" font-stretch="normal" font-size="24" text-anchor="start" direction="ltr" writing-mode="lr-tb" unicode-bidi="normal" text-decoration="none" transform="matrix(0.714286 0 0 0.714286 922.9 460)">Retry</text><path d="M568.857 255.357 568.857 287.36 566.714 287.36 566.714 255.357ZM572.071 285.931 567.786 294.503 563.5 285.931Z" fill="#0E2841" fill-rule="nonzero" fill-opacity="1"/><text fill="#0E2841" fill-opacity="1" font-family="Aptos,Aptos_MSFontService,sans-serif" font-style="normal" font-variant="normal" font-weight="400" font-stretch="normal" font-size="24" text-anchor="start" direction="ltr" writing-mode="lr-tb" unicode-bidi="normal" text-decoration="none" transform="matrix(0.714286 0 0 0.714286 577.901 276)">Compile</text><text fill="#000000" fill-opacity="1" font-family="Aptos,Aptos_MSFontService,sans-serif" font-style="normal" font-variant="normal" font-weight="400" font-stretch="normal" font-size="24" text-anchor="start" direction="ltr" writing-mode="lr-tb" unicode-bidi="normal" text-decoration="none" transform="matrix(0.714286 0 0 0.714286 77.4243 601)">*Fuzzy LTL Monitor: a runtime monitor combining temporal rule checking with fuzzy truth</text><text fill="#000000" fill-opacity="1" font-family="Aptos,Aptos_MSFontService,sans-serif" font-style="normal" font-variant="normal" font-weight="400" font-stretch="normal" font-size="24" text-anchor="start" direction="ltr" writing-mode="lr-tb" unicode-bidi="normal" text-decoration="none" transform="matrix(0.714286 0 0 0.714286 726.936 601)">-</text><text fill="#000000" fill-opacity="1" font-family="Aptos,Aptos_MSFontService,sans-serif" font-style="normal" font-variant="normal" font-weight="400" font-stretch="normal" font-size="24" text-anchor="start" direction="ltr" writing-mode="lr-tb" unicode-bidi="normal" text-decoration="none" transform="matrix(0.714286 0 0 0.714286 732.829 601)">degree scoring.</text><text fill="#0E2841" fill-opacity="1" font-family="Aptos,Aptos_MSFontService,sans-serif" font-style="normal" font-variant="normal" font-weight="400" font-stretch="normal" font-size="24" text-anchor="start" direction="ltr" writing-mode="lr-tb" unicode-bidi="normal" text-decoration="none" transform="matrix(0.714286 0 0 0.714286 578.071 495)">Feedback</text><path d="M233.5 289.483C233.5 286.81 235.667 284.643 238.34 284.643L897.943 284.643C900.621 284.643 902.786 286.81 902.786 289.483L902.786 439.803C902.786 442.476 900.621 444.643 897.943 444.643L238.34 444.643C235.667 444.643 233.5 442.476 233.5 439.803Z" stroke="#A6A6A6" stroke-width="2.14286" stroke-linecap="butt" stroke-linejoin="miter" stroke-miterlimit="8" stroke-dasharray="2.14286 2.14286" stroke-opacity="1" fill="none" fill-rule="evenodd"/><text fill="#000000" fill-opacity="1" font-family="Aptos,Aptos_MSFontService,sans-serif" font-style="italic" font-variant="normal" font-weight="700" font-stretch="normal" font-size="28" text-anchor="start" direction="ltr" writing-mode="lr-tb" unicode-bidi="normal" text-decoration="none" transform="matrix(0.714286 0 0 0.714286 811.679 289)">Sponsio</text><path d="M1.07143-1.64074e-06 1.07144 8.57143-1.07141 8.57143-1.07143 1.64074e-06ZM1.07145 15 1.07146 23.5714-1.07139 23.5714-1.07141 15ZM1.07147 30 1.07149 38.5714-1.07137 38.5714-1.07139 30ZM1.0715 45 1.07151 53.5714-1.07135 53.5714-1.07136 45ZM1.07152 60 1.07153 66.3121-1.07133 66.3121-1.07134 60ZM4.28581 64.8834 0.000112486 73.455-4.28561 64.8835Z" fill="#0E2841" fill-rule="nonzero" fill-opacity="1" transform="matrix(1 0 0 -1 567.071 509.526)"/><path d="M894.571 372.857 969.629 372.857 969.629 377.143 894.571 377.143ZM967.486 368.571 980.343 375 967.486 381.429Z" fill="#0E2841" fill-rule="nonzero" fill-opacity="1"/></g></g></g></g></g></svg>